<svg width="48" height="32" viewBox="0 0 48 32" fill="none" xmlns="http://www.w3.org/2000/svg">
<path d="M43.8883 18.3414L1.83377 18.3414C0.85576 18.3414 0 17.4857 0 16.5077C0 15.5296 0.85576 14.6739 1.83377 14.6739L43.8883 14.6739C44.8663 14.6739 45.722 15.5296 45.722 16.5077C45.722 17.4857 44.9885 18.3414 43.8883 18.3414Z" fill="white"/>
<path d="M32.7635 31.4224C32.2745 31.4224 31.7855 31.1779 31.4188 30.8112C30.6852 30.0776 30.6852 28.9774 31.4188 28.2439L43.6439 16.3855L31.4188 3.06009C30.6852 2.32658 30.8075 1.10407 31.541 0.492809C32.2745 -0.2407 33.497 -0.118449 34.1083 0.61506L47.5559 15.2852C48.1672 16.0187 48.1672 17.119 47.4337 17.8525L34.1083 30.9334C33.7415 31.3002 33.2525 31.4224 32.7635 31.4224Z" fill="white"/>
</svg>
