<?xml version="1.0" encoding="UTF-8"?>
<svg width="63px" height="63px" viewBox="0 0 63 63" version="1.1" xmlns="http://www.w3.org/2000/svg" xmlns:xlink="http://www.w3.org/1999/xlink">
    <!-- Generator: Sketch 59 (86127) - https://sketch.com -->
    <title>Group 17</title>
    <desc>Created with Sketch.</desc>
    <defs>
        <filter x="-13.8%" y="-13.8%" width="127.6%" height="127.6%" filterUnits="objectBoundingBox" id="filter-1">
            <feOffset dx="0" dy="1" in="SourceAlpha" result="shadowOffsetOuter1"></feOffset>
            <feGaussianBlur stdDeviation="1.5" in="shadowOffsetOuter1" result="shadowBlurOuter1"></feGaussianBlur>
            <feColorMatrix values="0 0 0 0 0   0 0 0 0 0   0 0 0 0 0  0 0 0 0.3 0" type="matrix" in="shadowBlurOuter1" result="shadowMatrixOuter1"></feColorMatrix>
            <feMerge>
                <feMergeNode in="shadowMatrixOuter1"></feMergeNode>
                <feMergeNode in="SourceGraphic"></feMergeNode>
            </feMerge>
        </filter>
        <path d="M0.244070372,27.1711073 C0.242591972,31.9380059 1.48821103,36.5925462 3.85674196,40.6951057 L3.85674196,40.6951057 L0.017606398,54.7131585 L14.3629231,50.9517061 C18.3150891,53.1057347 22.7650726,54.2424898 27.2936801,54.2439682 L27.2936801,54.2439682 L27.3057761,54.2439682 C42.2192015,54.2439682 54.3588802,42.1080528 54.3651993,27.1923425 L54.3651993,27.1923425 C54.3681538,19.9640425 51.5559685,13.1675697 46.4464843,8.05445667 L46.4464843,8.05445667 C41.3380752,2.94120926 34.5437528,0.123916786 27.3047009,0.120691186 L27.3047009,0.120691186 C12.3893938,0.120691186 0.250252771,12.2555314 0.244070372,27.1711073" id="path-2"></path>
        <linearGradient x1="49.9999303%" y1="100.000083%" x2="49.9999303%" y2="9.08186729e-05%" id="linearGradient-4">
            <stop stop-color="#1FAF38" offset="0%"></stop>
            <stop stop-color="#60D669" offset="100%"></stop>
        </linearGradient>
        <path d="M0.353203159,28.102768 C0.35132156,33.0415642 1.64183021,37.8624916 4.09462993,42.1120848 L4.09462993,42.1120848 L0.117868786,56.6323903 L14.9776687,52.7361347 C19.071761,54.9689217 23.6815461,56.1454591 28.3726431,56.1473407 L28.3726431,56.1473407 L28.3846047,56.1473407 C43.8330766,56.1473407 56.4090175,43.5750286 56.4156048,28.1253472 L56.4156048,28.1253472 C56.4181567,20.6375208 53.5049026,13.5969776 48.2130377,8.30027425 L48.2130377,8.30027425 C42.9203663,3.00383965 35.8826455,0.0856127902 28.3846047,0.0823871905 L28.3846047,0.0823871905 C12.9334449,0.0823871905 0.359385559,12.6524145 0.353203159,28.102768 L0.353203159,28.102768 Z M9.20223254,41.38068 L8.64783261,40.4995537 C6.31532087,36.7909206 5.08408262,32.5051739 5.08582796,28.1045152 L5.08582796,28.1045152 C5.09093701,15.262731 15.5420142,4.81541705 28.3933407,4.81541705 L28.3933407,4.81541705 C34.616732,4.81797065 40.4656849,7.24362157 44.8648652,11.6457587 L44.8648652,11.6457587 C49.2637767,16.0478958 51.6843205,21.8999399 51.6825742,28.1234656 L51.6825742,28.1234656 C51.6770629,40.9657873 41.2257169,51.4145797 28.3846047,51.4145797 L28.3846047,51.4145797 L28.3754655,51.4145797 C24.1940132,51.4124293 20.0937385,50.2897862 16.5172205,48.1676105 L16.5172205,48.1676105 L15.6660654,47.6630729 L6.84794801,49.9748871 L9.20223254,41.38068 Z" id="path-5"></path>
        <linearGradient x1="50.0000187%" y1="100.000178%" x2="50.0000187%" y2="-0.000105428523%" id="linearGradient-7">
            <stop stop-color="#F9F9F9" offset="0%"></stop>
            <stop stop-color="#FFFFFF" offset="100%"></stop>
        </linearGradient>
    </defs>
    <g id="Portada" stroke="none" stroke-width="1" fill="none" fill-rule="evenodd">
        <g id="Portada-nueva" transform="translate(-297.000000, -1271.000000)">
            <g id="Group-17" filter="url(#filter-1)" transform="translate(299.000000, 1273.000000)">
                <g id="Group-5" transform="translate(1.000000, 0.000000)" fill="#FFFFFF">
                    <path d="M15.6388648,47.9638187 L16.4900199,48.4683562 C20.0665379,50.5906664 24.166947,51.713175 28.348265,51.7154598 L28.3574042,51.7154598 C41.1985163,51.7154598 51.6498623,41.266533 51.6553738,28.4243457 C51.6572543,22.2006856 49.2365762,16.3486415 44.8376647,11.9466388 C40.4384844,7.54450171 34.5895314,5.11871639 28.3661402,5.11616279 C15.5148136,5.11616279 5.06373644,15.5636112 5.05862739,28.4053953 C5.05688204,32.806054 6.2881203,37.0918007 8.62049763,40.8002995 L9.17503197,41.6812914 L6.82074744,50.2757672 L15.6388648,47.9638187 Z M0.0906682148,56.9332704 L4.06742936,42.4128305 C1.61462964,38.1632374 0.324120988,33.3423099 0.326002588,28.4035137 C0.332184987,12.9531603 12.9062443,0.383132936 28.3574042,0.383132936 C35.8554449,0.386358536 42.8931657,3.3047198 48.1858371,8.60101999 C53.4777021,13.8977234 56.3909561,20.9382666 56.3884042,28.4262273 C56.3818169,43.8757743 43.8060104,56.4480865 28.3574042,56.4480865 C28.356329,56.4480865 28.3580762,56.4480865 28.3574042,56.4480865 L28.3453082,56.4480865 C23.6543455,56.4462049 19.0445604,55.2696674 14.9504681,53.0368805 L0.0906682148,56.9332704 Z" id="Fill-3"></path>
                </g>
                <g id="Group-8" transform="translate(2.047999, 1.241599)">
                    <mask id="mask-3" fill="white">
                        <use xlink:href="#path-2"></use>
                    </mask>
                    <g id="Clip-7"></g>
                    <path d="M0.244070372,27.1711073 C0.242591972,31.9380059 1.48821103,36.5925462 3.85674196,40.6951057 L3.85674196,40.6951057 L0.017606398,54.7131585 L14.3629231,50.9517061 C18.3150891,53.1057347 22.7650726,54.2424898 27.2936801,54.2439682 L27.2936801,54.2439682 L27.3057761,54.2439682 C42.2192015,54.2439682 54.3588802,42.1080528 54.3651993,27.1923425 L54.3651993,27.1923425 C54.3681538,19.9640425 51.5559685,13.1675697 46.4464843,8.05445667 L46.4464843,8.05445667 C41.3380752,2.94120926 34.5437528,0.123916786 27.3047009,0.120691186 L27.3047009,0.120691186 C12.3893938,0.120691186 0.250252771,12.2555314 0.244070372,27.1711073" id="Fill-6" fill="url(#linearGradient-4)" mask="url(#mask-3)"></path>
                </g>
                <g id="Group-12" transform="translate(0.972799, 0.300800)">
                    <mask id="mask-6" fill="white">
                        <use xlink:href="#path-5"></use>
                    </mask>
                    <g id="Clip-11"></g>
                    <path d="M0.353203159,28.102768 C0.35132156,33.0415642 1.64183021,37.8624916 4.09462993,42.1120848 L4.09462993,42.1120848 L0.117868786,56.6323903 L14.9776687,52.7361347 C19.071761,54.9689217 23.6815461,56.1454591 28.3726431,56.1473407 L28.3726431,56.1473407 L28.3846047,56.1473407 C43.8330766,56.1473407 56.4090175,43.5750286 56.4156048,28.1253472 L56.4156048,28.1253472 C56.4181567,20.6375208 53.5049026,13.5969776 48.2130377,8.30027425 L48.2130377,8.30027425 C42.9203663,3.00383965 35.8826455,0.0856127902 28.3846047,0.0823871905 L28.3846047,0.0823871905 C12.9334449,0.0823871905 0.359385559,12.6524145 0.353203159,28.102768 L0.353203159,28.102768 Z M9.20223254,41.38068 L8.64783261,40.4995537 C6.31532087,36.7909206 5.08408262,32.5051739 5.08582796,28.1045152 L5.08582796,28.1045152 C5.09093701,15.262731 15.5420142,4.81541705 28.3933407,4.81541705 L28.3933407,4.81541705 C34.616732,4.81797065 40.4656849,7.24362157 44.8648652,11.6457587 L44.8648652,11.6457587 C49.2637767,16.0478958 51.6843205,21.8999399 51.6825742,28.1234656 L51.6825742,28.1234656 C51.6770629,40.9657873 41.2257169,51.4145797 28.3846047,51.4145797 L28.3846047,51.4145797 L28.3754655,51.4145797 C24.1940132,51.4124293 20.0937385,50.2897862 16.5172205,48.1676105 L16.5172205,48.1676105 L15.6660654,47.6630729 L6.84794801,49.9748871 L9.20223254,41.38068 Z" id="Fill-10" fill="url(#linearGradient-7)" mask="url(#mask-6)"></path>
                </g>
                <g id="Group-16" transform="translate(14.471998, 15.009598)" fill="#FFFFFF">
                    <path d="M7.87945754,1.67982817 C7.35476,0.513505106 6.80251046,0.490119509 6.30334892,0.469690711 C5.89517617,0.452218713 5.42773302,0.453281 4.96109627,0.453281 C4.49419073,0.453281 3.73523402,0.628685893 3.09360849,1.32958181 C2.45144536,2.03047773 0.641883971,3.72472394 0.641883971,7.17060514 C0.641883971,10.6168895 3.15193808,13.9466492 3.50178124,14.4143611 C3.8520276,14.8814011 8.34716949,22.1787826 15.4662023,24.9862639 C21.3827584,27.3193132 22.5867134,26.8552301 23.8709053,26.7385709 C25.1550972,26.6217773 28.0147256,25.0445935 28.5984248,23.4090801 C29.1821239,21.7738355 29.1821239,20.372178 29.0070007,20.0791861 C28.8318775,19.7872693 28.364972,19.6121461 27.6644793,19.2618998 C26.9639865,18.9116534 23.5206589,17.217004 22.8784958,16.9835512 C22.2364671,16.7500984 21.7694271,16.6333049 21.3025216,17.3344696 C20.8354816,18.0349623 19.4940354,19.6121461 19.0853251,20.0791861 C18.6767491,20.5473012 18.2681731,20.6056308 17.5676804,20.2553844 C16.8671877,19.9040629 14.6114184,19.1652662 11.9353803,16.7792632 C9.85325571,14.9229306 8.44756627,12.6303357 8.03885592,11.929171 C7.63027997,11.2286783 7.99504153,10.8492671 8.34649749,10.500096 C8.66099345,10.186272 9.04699021,9.68254085 9.39723656,9.2735617 C9.74667652,8.86458255 9.86347011,8.57266578 10.0969229,8.10562583 C10.3303757,7.63791389 10.2137165,7.22893473 10.0385933,6.87868837 C9.86347011,6.52844201 8.50226707,3.06468561 7.87945754,1.67982817" id="Fill-14"></path>
                </g>
            </g>
        </g>
    </g>
</svg>