<?xml version="1.0" encoding="UTF-8"?>
<!DOCTYPE svg PUBLIC "-//W3C//DTD SVG 1.1//EN" "http://www.w3.org/Graphics/SVG/1.1/DTD/svg11.dtd">
<!-- Creator: CorelDRAW 2021 (64-Bit) -->
<svg xmlns="http://www.w3.org/2000/svg" xml:space="preserve" width="133.162mm" height="56.962mm" version="1.1" style="shape-rendering:geometricPrecision; text-rendering:geometricPrecision; image-rendering:optimizeQuality; fill-rule:evenodd; clip-rule:evenodd"
viewBox="0 0 13316.2 5696.2"
 xmlns:xlink="http://www.w3.org/1999/xlink"
 xmlns:xodm="http://www.corel.com/coreldraw/odm/2003">
 <defs>
  <style type="text/css">
   <![CDATA[
    .fil0 {fill:#2C2A2A}
   ]]>
  </style>
 </defs>
 <g id="Capa_x0020_1">
  <metadata id="CorelCorpID_0Corel-Layer"/>
  <g id="_2683459260848">
   <path class="fil0" d="M4739.34 1910.42c0,83.57 68.49,411.72 92.38,505.46 23.55,92.37 87.78,123.47 188.44,77.91 71.42,-32.33 136.25,-61.2 207.82,-92.04 280.4,-120.79 573,-226.11 875.62,-325.3 533.14,-174.77 1124.85,-310.61 1684.15,-406.24 289.71,-49.54 262.04,-37.89 94.88,-546.93 -65.3,-198.84 -192.56,-138.11 -433.65,-102.41 -827.14,122.47 -1601.16,323.58 -2368.68,632.7 -163.43,65.83 -340.96,107.47 -340.96,256.85z"/>
   <path class="fil0" d="M7230.74 2.07l-68.44 0c-40.83,19.33 -617.19,96.11 -723.25,114.65 -299.6,52.37 -729.44,145.24 -1023.73,231.6 -110.25,32.36 -225.11,60.43 -206.09,209.8 11.24,88.28 61,242.96 84.97,334.19 93.29,355.15 119.55,198.61 862.95,26.07 361.48,-83.9 686.21,-150.41 1055.25,-208.96 108.49,-17.21 275.53,-8 288.71,-130.06 5.22,-48.32 -126.26,-409.51 -155.81,-473.36 -33.65,-72.72 -58.31,-66.02 -114.56,-103.93z"/>
   <path class="fil0" d="M7655.47 2047.14c-579.76,128.35 -1139.18,273.04 -1692.91,456.54 -280.74,93.04 -198.59,172.15 -88.51,574.67 34.25,125.24 79.38,222.36 238.84,165.89 548.48,-194.24 1070.98,-359.72 1641.78,-503.23 327.4,-82.31 281.54,-51.41 140.46,-515.32 -41.36,-136.02 -74.45,-215.13 -239.66,-178.55z"/>
   <path class="fil0" d="M8261.26 4622.86l-3.3 1047.99 357.25 0.02 2.6 -890.54c87.44,-17.9 194.79,-29.94 276.8,5.29 95.24,40.92 96.09,123.68 95.73,233.88 -0.58,182.99 -17.43,481.6 3.27,651.37l350.46 0c18.56,-189.38 13.02,-704.44 -22.76,-877.81 586.62,-128.51 339,220.65 403.34,877.81l350.47 0c17.72,-145.2 3.33,-388.43 3.33,-544.12 0,-166.18 26.19,-382.08 -61.67,-498.54 -74.3,-98.49 -212.83,-168.19 -391.21,-170.24 -194.88,-2.24 -297.4,61.13 -439.64,125.68 -147.23,-98.75 -252.92,-142.64 -481.54,-120.19 -114.96,11.29 -393.97,79.17 -443.13,159.4z"/>
   <path class="fil0" d="M335.72 5014.23l198.29 0c136.26,0 235.8,44.8 227.77,187.69 -7.12,126.8 -115.1,166.01 -249.21,166.01l-176.85 0 0 -353.7zm3.97 -613.85c155.72,-18.24 357.11,-27.37 363.08,147.88 6.46,189.48 -204.17,165.68 -367.41,165.68l4.33 -313.56zm-341.74 -270.69l0 1541.18c192.03,0 387.82,3.77 579.37,-0.06 315.28,-6.31 634.6,-206.09 568.9,-565.64 -38.15,-208.77 -165.59,-239.78 -287.23,-302.71 64.68,-45.38 93.18,-44.33 139.02,-101.74 38.6,-48.33 65.57,-113.33 66.65,-195.71 2.17,-165.02 -92.95,-266.88 -187.11,-322.16 -257.89,-151.38 -573.69,-81.62 -879.6,-53.16z"/>
   <path class="fil0" d="M10678.83 4803.08c129.32,-68.13 488.94,-105.03 479.81,270.31 -7.01,288.01 -193.61,373.72 -479.74,318.04l-0.07 -588.35zm-358.47 -664.68l-0.66 1449.36c16.58,28.7 33.76,30.58 68.43,41.6 414.37,131.76 981.65,109.89 1104.14,-405.71 138.31,-582.21 -274.87,-896.59 -677.87,-719.65 -53.51,23.49 -92.69,61.44 -133.53,81.99l-2.15 -555.45c-160.72,7.82 -241.11,57.76 -358.36,107.86z"/>
   <path class="fil0" d="M7459.84 4767.65c356.93,0 356.16,621.38 -0.02,616.17 -174.93,-2.56 -254.51,-127.04 -257.04,-299.8 -2.59,-176.81 81.44,-316.37 257.06,-316.37zm-130.66 -300.24c-334.78,61.85 -547.51,345.69 -474.58,750.36 59.32,329.13 353.51,534.05 743.75,466.1 757.57,-131.9 609.64,-1378.84 -269.17,-1216.46z"/>
   <path class="fil0" d="M5385.34 4777.01c395.32,-106.34 445.31,524.28 156.9,597.33 -402.14,101.85 -443.87,-520.13 -156.9,-597.33zm-51.58 -310.2c-335.46,58.99 -547.08,337.63 -481.17,736 55.24,333.92 337.42,543.35 733.15,483.27 341.15,-51.8 552.41,-339.06 488.07,-738.5 -53.52,-332.29 -348.15,-549.69 -740.05,-480.77z"/>
   <path class="fil0" d="M2552.24 4612.14l-3.25 1058.72 358.45 -0.62 1.39 -875.84c45.77,-51.3 215.99,-34.7 273.84,-11.2 194.66,79.08 57.54,479.43 107.31,887.67l352.48 0c19.63,-160.86 3.33,-435.43 3.33,-608.44 0,-224.39 19.58,-379.17 -125.35,-488.69 -271.24,-204.96 -705.57,-109.17 -968.2,38.4z"/>
   <path class="fil0" d="M1983.37 5374.02c-85.57,32.22 -361.98,118.93 -369.02,-54.32 -6.42,-158.04 234.22,-155.37 372.74,-155.37l-3.72 209.69zm-633.21 -815.48c68.96,256.97 130.61,227.99 292.02,206.65 189.53,-25.06 332.46,-46.19 344.49,168.58 -192.81,0.44 -414.83,29.73 -557.9,122.72 -120.77,78.49 -228.14,280.56 -122,465.81 126.23,220.31 570.42,194.72 804.62,131.48 40.01,-10.81 215.04,-68.41 226.43,-119.62 0,-178.69 -0.09,-357.38 0,-536.06 0.2,-390.6 -149.08,-538.8 -538.75,-538.38 -122.29,0.13 -369.09,37.27 -448.91,98.82z"/>
   <path class="fil0" d="M12966.48 5369.34c-90.83,60.9 -360.13,105.46 -368.56,-50.46 -8.59,-158.91 228.52,-154.55 373.06,-154.55l-4.5 205.01zm-632.59 -820.87c42.11,276.76 172.01,232.75 286.64,217.31 196.22,-26.43 336.8,-50.04 349.96,167.99 -237.42,0.33 -614.28,44.28 -699.6,297.49 -30.59,90.81 -29.36,206.91 17.05,288.61 123.62,217.62 545.58,195.98 785.84,138.59 115.47,-27.58 154.62,-63.09 239.78,-100.2 0,-179.57 0,-359.14 0,-538.72 0,-200.35 14.85,-307.69 -108.01,-428.14 -97.11,-95.2 -233.46,-128.01 -406.53,-131.45 -201.7,-4.01 -296.85,49.95 -465.13,88.52z"/>
   <path class="fil0" d="M4776.21 5617.23l-63.68 -283.57c-122.37,25.13 -215.72,66.8 -354.91,22.14 -109.72,-35.22 -165.89,-103.46 -179.03,-239.42 -28.54,-295.26 196.53,-408.44 472.32,-337.03 65.76,-46.19 112.07,-174.03 125.3,-281.79 -1058.69,-289.52 -1220.59,864.2 -688.3,1128.35 196.31,97.41 493.25,87.36 688.3,-8.68z"/>
   <path class="fil0" d="M6283.87 4143.76l-0.62 1525.06 357.09 1.87 2.07 -1636.84c-122.89,-10.21 -275.28,61.74 -358.54,109.91z"/>
   <path class="fil0" d="M11713.45 4504.93l0.18 1165.94 360.35 -0.63 1.38 -1172.73c-59.55,-42.61 -312.68,-67.83 -361.91,7.42z"/>
   <path class="fil0" d="M11835.39 3944.77c-232.63,78.55 -111.79,425.46 117.65,346.74 226.24,-77.63 117.99,-426.3 -117.65,-346.74z"/>
  </g>
 </g>
</svg>
